<?xml version="1.0" encoding="UTF-8" standalone="no"?>
<!-- Created with Inkscape (http://www.inkscape.org/) -->

<svg
   xmlns:dc="http://purl.org/dc/elements/1.1/"
   xmlns:cc="http://creativecommons.org/ns#"
   xmlns:rdf="http://www.w3.org/1999/02/22-rdf-syntax-ns#"
   xmlns:svg="http://www.w3.org/2000/svg"
   xmlns="http://www.w3.org/2000/svg"
   xmlns:sodipodi="http://sodipodi.sourceforge.net/DTD/sodipodi-0.dtd"
   xmlns:inkscape="http://www.inkscape.org/namespaces/inkscape"
   width="100"
   height="100"
   viewBox="0 0 100 99.999999"
   id="svg4218"
   version="1.1"
   inkscape:version="0.91 r13725"
   sodipodi:docname="camera-icon.svg"
   inkscape:export-filename="/Users/enyishang/Desktop/icon-camera"
   inkscape:export-xdpi="89.900002"
   inkscape:export-ydpi="89.900002">
  <defs
     id="defs4220" />
  <sodipodi:namedview
     id="base"
     pagecolor="#ffffff"
     bordercolor="#666666"
     borderopacity="1"
     inkscape:pageopacity="0.0"
     inkscape:pageshadow="2"
     inkscape:zoom="5.6"
     inkscape:cx="26.559199"
     inkscape:cy="38.631796"
     inkscape:document-units="px"
     inkscape:current-layer="layer1"
     showgrid="false"
     units="px"
     inkscape:showpageshadow="false"
     inkscape:window-width="1440"
     inkscape:window-height="855"
     inkscape:window-x="0"
     inkscape:window-y="1"
     inkscape:window-maximized="1" />
  <metadata
     id="metadata4223">
    <rdf:RDF>
      <cc:Work
         rdf:about="">
        <dc:format>image/svg+xml</dc:format>
        <dc:type
           rdf:resource="http://purl.org/dc/dcmitype/StillImage" />
        <dc:title></dc:title>
      </cc:Work>
    </rdf:RDF>
  </metadata>
  <g
     inkscape:label="Layer 1"
     inkscape:groupmode="layer"
     id="layer1"
     transform="translate(0,-952.36222)">
    <path
       style="fill:#000000;fill-opacity:1"
       d="m 14.823937,1034.1896 c -2.123455,-0.571 -3.904942,-2.3045 -4.565227,-4.4423 -0.260211,-0.8424 -0.265629,-1.2903 -0.265629,-21.9584 0,-18.63662 0.02423,-21.19152 0.20766,-21.89594 0.522715,-2.00736 2.033996,-3.63636 4.176276,-4.50157 l 0.767424,-0.30994 12.102916,-0.0669 12.102915,-0.0669 3.31551,-4.00673 c 1.823532,-2.20371 3.572399,-4.26897 3.886371,-4.58948 0.719947,-0.73493 1.575212,-1.28694 2.588685,-1.67082 0.789401,-0.29901 0.823272,-0.30013 10.29192,-0.34088 6.693444,-0.0288 9.76948,0.004 10.412406,0.11237 1.220329,0.20495 2.54636,0.88999 3.441144,1.77774 0.401952,0.39879 2.236087,2.53704 4.075859,4.75167 l 3.345039,4.0266 1.744759,0.003 c 1.125122,0.002 2.024103,0.076 2.531331,0.20809 1.730553,0.45076 3.345206,1.66403 4.188848,3.14757 0.883869,1.55427 0.83427,0.16182 0.83427,23.42192 0,20.6681 -0.0054,21.1159 -0.265628,21.9584 -0.644645,2.0871 -2.304249,3.7442 -4.398071,4.3913 -0.836175,0.2584 -1.4251,0.2626 -35.323613,0.254 -29.68394,-0.01 -34.57355,-0.036 -35.195165,-0.203 z m 37.34067,-5.3371 c 4.335738,-0.6536 8.155291,-2.6059 11.282197,-5.7668 4.074746,-4.119 6.243108,-10.0677 5.702432,-15.6439 -0.485225,-5.0044 -2.344878,-8.97779 -5.826799,-12.44986 -2.98504,-2.9766 -6.120133,-4.67372 -10.298231,-5.57473 -1.949096,-0.42033 -5.708011,-0.41975 -7.660384,0.001 -3.838839,0.82766 -7.085211,2.50269 -9.79585,5.05438 -8.191035,7.71071 -8.534168,20.32781 -0.772002,28.38681 3.198068,3.3203 6.944408,5.2918 11.390432,5.9941 1.478601,0.2336 4.42451,0.233 5.978205,0 z m -5.154021,-6.8931 c -4.867757,-0.877 -8.736183,-4.3599 -10.213172,-9.1953 -0.32898,-1.077 -0.359359,-1.3672 -0.361265,-3.4505 -0.0023,-2.5583 0.176682,-3.4827 1.033649,-5.3375 1.358661,-2.9406 3.902769,-5.39082 6.841504,-6.58893 1.702176,-0.69397 2.806508,-0.89736 4.885635,-0.89981 1.417035,-0.002 2.062299,0.0613 2.994078,0.29215 4.595706,1.13863 8.194422,4.67199 9.418464,9.24739 0.29154,1.0898 0.342792,1.5675 0.345433,3.2198 0.0045,2.8469 -0.586577,4.8791 -2.057041,7.0716 -1.780051,2.6542 -4.456696,4.5908 -7.451725,5.3913 -1.165711,0.3116 -4.294594,0.4554 -5.43556,0.2498 z m 17.850556,-41.04521 c 3.05149,-1.54568 2.979212,-7.23077 -0.111279,-8.75279 -0.604857,-0.29788 -0.789469,-0.31427 -4.009519,-0.35582 -2.163572,-0.0279 -3.637255,0.0108 -4.104614,0.1078 -1.264341,0.26248 -2.255001,1.22175 -2.835421,2.74559 -0.189093,0.49645 -0.254733,1.01413 -0.254484,2.00702 2.68e-4,1.2178 0.03746,1.41616 0.413495,2.20773 0.545255,1.14778 0.985498,1.64602 1.823306,2.06352 l 0.692139,0.34491 3.829981,0 3.829982,0 0.726414,-0.36796 z"
       id="path4314"
       inkscape:connector-curvature="0" />
  </g>
</svg>
