<?xml version="1.0" encoding="UTF-8" standalone="no"?>
<!-- Created with Inkscape (http://www.inkscape.org/) -->

<svg
   xmlns:dc="http://purl.org/dc/elements/1.1/"
   xmlns:cc="http://creativecommons.org/ns#"
   xmlns:rdf="http://www.w3.org/1999/02/22-rdf-syntax-ns#"
   xmlns:svg="http://www.w3.org/2000/svg"
   xmlns="http://www.w3.org/2000/svg"
   xmlns:sodipodi="http://sodipodi.sourceforge.net/DTD/sodipodi-0.dtd"
   xmlns:inkscape="http://www.inkscape.org/namespaces/inkscape"
   width="100"
   height="100"
   viewBox="0 0 100 100"
   id="svg4276"
   version="1.1"
   inkscape:version="0.91 r13725"
   sodipodi:docname="icon-inbox.svg">
  <defs
     id="defs4278" />
  <sodipodi:namedview
     id="base"
     pagecolor="#ffffff"
     bordercolor="#666666"
     borderopacity="1.0"
     inkscape:pageopacity="0.0"
     inkscape:pageshadow="2"
     inkscape:zoom="0.7"
     inkscape:cx="34.505492"
     inkscape:cy="55.780445"
     inkscape:document-units="px"
     inkscape:current-layer="layer1"
     showgrid="false"
     units="px"
     inkscape:showpageshadow="false"
     inkscape:window-width="1440"
     inkscape:window-height="855"
     inkscape:window-x="0"
     inkscape:window-y="1"
     inkscape:window-maximized="1" />
  <metadata
     id="metadata4281">
    <rdf:RDF>
      <cc:Work
         rdf:about="">
        <dc:format>image/svg+xml</dc:format>
        <dc:type
           rdf:resource="http://purl.org/dc/dcmitype/StillImage" />
        <dc:title></dc:title>
      </cc:Work>
    </rdf:RDF>
  </metadata>
  <g
     inkscape:label="Layer 1"
     inkscape:groupmode="layer"
     id="layer1"
     transform="translate(0,-952.36216)">
    <path
       style="fill:#000000"
       d="m 10.092787,1052.1159 c -0.6059895,-0.1511 -1.5380395,-0.438 -2.0712195,-0.6375 l -0.96942,-0.3628 3.5402895,-3.097 c 1.94715,-1.7034 10.38983,-9.0234 18.76151,-16.2668 17.55293,-15.1871 16.43385,-14.4063 20.64844,-14.4063 2.32008,0 2.70705,0.059 3.96693,0.6044 1.16497,0.5044 4.4988,3.2897 20.14053,16.8264 10.30945,8.922 18.65445,16.3012 18.54445,16.3982 -0.11,0.097 -0.85466,0.3941 -1.65479,0.6603 l -1.45479,0.4839 -39.17507,0.036 c -31.07492,0.029 -39.40288,-0.021 -40.27686,-0.2388 z m -8.8930495,-6.5229 c -0.2,-0.341 -0.55728,-1.2016 -0.79395,-1.9125 -0.40001,-1.2015 -0.42792,-2.9694 -0.39634,-25.107 0.0233,-16.2961 0.11768,-24.10007 0.2991,-24.71877 0.37386,-1.2751 1.00857,-2.7392 1.18746,-2.7392 0.0831,0 7.23442,6.2461 15.8918495,13.88017 l 15.74076,13.8802 -11.4567,9.9161 c -6.30119,5.4538 -13.4033695,11.6047 -15.7826195,13.6685 l -4.32592,3.7525 -0.36364,-0.62 z m 93.1194395,-2.9467 c -2.22196,-1.9342 -9.30607,-8.0735 -15.74245,-13.6427 l -11.70253,-10.1259 15.74175,-13.8811 c 8.65795,-7.63457 15.80973,-13.88107 15.89282,-13.88107 0.18146,0 0.812,1.4624 1.21004,2.8065 0.21219,0.7165 0.285923,7.23247 0.28096,24.82667 -0.007,23.4555 -0.0151,23.8788 -0.50965,25.2616 -0.90525,2.5313 -0.60536,2.6104 -5.17094,-1.364 z m -65.37339,-40.4127 0,-2.26677 20.68933,0 20.68933,0 0,2.26677 0,2.2667 -20.68933,0 -20.68933,0 0,-2.2667 z m -16.15971,-11.02037 -5.7538495,-5.0877 6.9890895,-6.0864 c 3.844,-3.3475 12.30004,-10.6819 18.79121,-16.2987 13.69748,-11.8522 12.97875,-11.3766 17.18986,-11.3755 2.34907,7e-4 2.6917,0.055 3.97161,0.6257 1.1482,0.5123 4.76769,3.5375 20.07525,16.7791 10.27098,8.8848 18.70315,16.2299 18.73818,16.3226 0.035,0.093 -2.52579,2.45 -5.69066,5.2386 l -5.75433,5.0703 0,-5.8897 c 0,-5.4412 -0.0369,-5.9535 -0.48414,-6.7265 -0.56929,-0.9839 -1.46491,-1.5956 -2.82125,-1.9268 -1.38132,-0.3374 -54.688,-0.3374 -56.06932,0 -1.27995,0.3126 -2.23203,0.9243 -2.75819,1.7723 -0.36472,0.5878 -0.44209,1.532 -0.54721,6.6776 l -0.12242,5.9929 -5.75383,-5.0878 z m 16.15971,2.6008 0,-2.2667 20.68933,0 20.68933,0 0,2.2667 0,2.2668 -20.68933,0 -20.68933,0 0,-2.2668 z"
       id="path4349"
       inkscape:connector-curvature="0" />
  </g>
</svg>
