<?xml version="1.0" encoding="UTF-8" standalone="no"?>
<!-- Created with Inkscape (http://www.inkscape.org/) -->

<svg
   xmlns:dc="http://purl.org/dc/elements/1.1/"
   xmlns:cc="http://creativecommons.org/ns#"
   xmlns:rdf="http://www.w3.org/1999/02/22-rdf-syntax-ns#"
   xmlns:svg="http://www.w3.org/2000/svg"
   xmlns="http://www.w3.org/2000/svg"
   xmlns:sodipodi="http://sodipodi.sourceforge.net/DTD/sodipodi-0.dtd"
   xmlns:inkscape="http://www.inkscape.org/namespaces/inkscape"
   width="100"
   height="100"
   viewBox="0 0 99.999997 100"
   id="svg4475"
   version="1.1"
   inkscape:version="0.91 r13725"
   sodipodi:docname="icon-profil.svg">
  <defs
     id="defs4477" />
  <sodipodi:namedview
     id="base"
     pagecolor="#ffffff"
     bordercolor="#666666"
     borderopacity="1.0"
     inkscape:pageopacity="0.0"
     inkscape:pageshadow="2"
     inkscape:zoom="2.8"
     inkscape:cx="40.661797"
     inkscape:cy="56.567795"
     inkscape:document-units="px"
     inkscape:current-layer="layer1"
     showgrid="false"
     units="px"
     inkscape:showpageshadow="false"
     inkscape:window-width="1440"
     inkscape:window-height="855"
     inkscape:window-x="0"
     inkscape:window-y="1"
     inkscape:window-maximized="1" />
  <metadata
     id="metadata4480">
    <rdf:RDF>
      <cc:Work
         rdf:about="">
        <dc:format>image/svg+xml</dc:format>
        <dc:type
           rdf:resource="http://purl.org/dc/dcmitype/StillImage" />
        <dc:title></dc:title>
      </cc:Work>
    </rdf:RDF>
  </metadata>
  <g
     inkscape:label="Layer 1"
     inkscape:groupmode="layer"
     id="layer1"
     transform="translate(0,-952.36216)">
    <path
       style="fill:#000000"
       d="m 16.861007,1052.322 c -5.420676,-0.3767 -9.8920159,-2.3473 -12.9629259,-5.7131 -2.34981,-2.5754 -3.62185998,-5.82 -3.86836998,-9.8668 -0.0769,-1.2613 0.003,-4.9543 0.15501,-7.18 0.43834,-6.4135 1.93862998,-13.0532 3.95341998,-17.4962 2.32399,-5.1247 5.48723,-8.9218 9.2013599,-11.045 3.127609,-1.788 6.774571,-2.76293 10.372481,-2.77293 l 1.250065,-0.003 0.660507,0.3059 c 0.66237,0.30681 1.032946,0.51929 5.336194,3.06023 1.277707,0.7544 2.652475,1.5385 3.055041,1.7422 2.692786,1.3634 6.64667,2.6909 9.815561,3.2956 4.362949,0.8327 8.579161,0.7956 12.906778,-0.1132 2.78078,-0.5841 6.261216,-1.7538 8.719117,-2.9301 0.94176,-0.4508 1.89928,-0.9965 5.664553,-3.2282 2.236933,-1.3258 3.173093,-1.83634 3.755154,-2.04765 0.330893,-0.12021 0.418006,-0.1253 1.591167,-0.0931 3.236478,0.0891 6.104448,0.77119 8.910534,2.11915 1.583599,0.7607 2.883124,1.6203 4.129924,2.732 2.403267,2.1426 4.343892,4.8147 6.021618,8.2915 1.830097,3.7926 3.259837,9.1785 3.97464,14.9729 0.361373,2.9293 0.597515,8.3393 0.455061,10.4256 -0.321263,4.705 -1.90702,8.1677 -5.011259,10.9427 -1.35661,1.2128 -2.621581,2.0326 -4.319134,2.7989 -2.001089,0.9035 -3.843921,1.3884 -6.58743,1.7333 -0.741936,0.093 -3.010189,0.1004 -33.637266,0.1097 -18.062926,0 -33.156738,-0.013 -33.5418,-0.04 z m 31.568753,-49.9965 c -2.566531,-0.1766 -4.115949,-0.4088 -6.076949,-0.9105 -5.302553,-1.3565 -10.117049,-4.37635 -13.929274,-8.73706 -0.650665,-0.74428 -1.8383,-2.35603 -2.35936,-3.20189 -1.707839,-2.77245 -2.754722,-5.82195 -3.202082,-9.32745 -0.131839,-1.03308 -0.10988,-4.80511 0.03415,-5.86598 0.686258,-5.05477 2.680323,-9.2413 6.214409,-13.04713 0.754794,-0.81284 2.433548,-2.35171 3.340274,-3.06196 4.173938,-3.26944 8.885392,-5.13198 14.429615,-5.70429 1.382192,-0.14268 4.849307,-0.14313 6.217118,-8e-4 6.513441,0.67774 11.880886,3.12057 16.526438,7.52149 3.858547,3.65537 6.235458,7.82274 7.186142,12.59926 0.527911,2.65238 0.588394,5.9301 0.158894,8.61014 -0.696174,4.34402 -2.524386,8.17976 -5.536669,11.61639 -2.781359,3.17318 -6.331717,5.76304 -10.049587,7.33098 -2.614274,1.1024 -5.271656,1.761 -8.338738,2.0666 -0.866874,0.086 -3.91347,0.1606 -4.614384,0.1121 z"
       id="path4548"
       inkscape:connector-curvature="0" />
  </g>
</svg>
